<?xml version="1.0" encoding="UTF-8" standalone="no"?><svg xmlns="http://www.w3.org/2000/svg" xmlns:xlink="http://www.w3.org/1999/xlink" fill="#000000" height="451.5" preserveAspectRatio="xMidYMid meet" version="1" viewBox="0.0 0.0 307.9 451.5" width="307.9" zoomAndPan="magnify"><g fill="#1dcd8d" id="change1_1"><path d="M277.12,33.33c-0.68-0.68-1.42-1.36-2.16-1.98l-8.29,30.8l-97.84,364.07c1.18-0.87,2.23-1.67,3.34-2.47 c0-0.06,0.06-0.06,0.06-0.06L269.2,62.83L277.12,33.33z" fill="inherit"/><path d="M213.61,0.49c-0.87-0.19-1.73-0.37-2.6-0.49L199.2,43.97L89.92,450.53c0.8,0.37,1.61,0.68,2.47,0.99 L201.73,44.65L213.61,0.49z" fill="inherit"/><path d="M137.54,14.29c-1.18,0.87-2.29,1.73-3.4,2.66l-2.41,8.91L27.71,412.68c0.74,0.68,1.48,1.3,2.23,1.92 L134.26,26.53L137.54,14.29z" fill="inherit"/><path d="M44.47,215.9L0,381.27c0.62,0.99,1.3,1.98,1.98,2.91l46.44-172.79C47.12,212.93,45.83,214.41,44.47,215.9z" fill="inherit"/><path d="M307.8,172.61l-42.55,158.2c1.36-1.48,2.72-3.03,3.96-4.58l38.71-143.97v-0.06 C307.92,179.04,307.86,175.76,307.8,172.61z" fill="inherit"/></g></svg>